<svg width="732" height="785" viewBox="0 0 732 785" fill="none" xmlns="http://www.w3.org/2000/svg">
<g clip-path="url(#clip0_347_2)">
<path d="M320.031 785C415.925 785 493.663 783.415 493.663 781.46C493.663 779.505 415.925 777.92 320.031 777.92C224.137 777.92 146.4 779.505 146.4 781.46C146.4 783.415 224.137 785 320.031 785Z" fill="#C7E2FF"/>
<g opacity="0.8">
<path d="M275.52 565.771C138.072 554.069 97.5584 550.529 39.3065 477.397C9.95156 440.54 -3.99724 399.309 1.04098 360.703C13.6574 263.541 73.7413 255.794 97.9748 221.144C122.208 186.494 79.529 74.2979 153.728 20.9067C227.928 -32.5261 343.807 30.9019 390.15 51.6004C436.494 72.2988 534.552 -1.49928 665.587 126.106C735.539 194.282 754.485 309.019 702.021 437.333C686.614 474.981 655.344 502.093 616.371 521.501C487.709 585.554 275.52 565.771 275.52 565.771Z" fill="#C5F1FF"/>
</g>
<path d="M478.756 325.594C478.756 325.594 439.866 359.453 437.035 360.286C434.203 361.119 386.444 349.666 377.284 351.332C369.248 352.79 345.556 364.243 361.795 385.233C377.159 405.098 444.946 393.937 452.566 388.606C460.186 383.275 491.456 337.131 494.371 327.76L478.756 325.594Z" fill="#3F273A"/>
<path d="M422.461 172.459C384.821 193.491 371.33 241.218 392.357 278.867C413.384 316.515 461.102 330.009 498.743 308.977C536.384 287.946 549.874 240.219 528.847 202.57C507.82 164.963 460.102 151.428 422.461 172.459ZM426.126 178.998C460.144 160.007 503.281 172.209 522.31 206.235C541.297 240.26 529.097 283.406 495.079 302.439C461.06 321.43 417.923 309.227 398.894 275.202C379.866 241.176 392.107 198.03 426.126 178.998Z" fill="white"/>
<path d="M414.384 160.049C369.414 185.162 353.259 242.218 378.408 287.196C403.516 332.175 460.56 348.334 505.53 323.179C550.499 298.066 566.655 241.01 541.505 196.031C516.397 151.053 459.353 134.936 414.384 160.049ZM418.756 167.878C459.395 145.181 510.943 159.757 533.677 200.404C556.37 241.052 541.797 292.61 501.158 315.349C460.519 338.047 408.971 323.47 386.236 282.823C363.502 242.176 378.117 190.617 418.756 167.878Z" fill="#4B677A"/>
<path d="M419.005 168.336C378.616 190.909 364.085 242.134 386.653 282.573C409.221 322.971 460.436 337.505 500.866 314.933L501.366 315.849C460.477 338.713 408.596 324.012 385.737 283.115C362.877 242.218 377.575 190.326 418.464 167.462L419.005 168.336Z" fill="black"/>
<path d="M414.134 159.59C368.915 184.87 352.676 242.218 377.909 287.446C403.183 332.674 460.519 348.917 505.738 323.637C550.957 298.357 567.196 241.01 541.922 195.781C516.689 150.553 459.353 134.311 414.134 159.59ZM414.633 160.507C459.353 135.519 516.064 151.594 541.047 196.323C566.03 241.052 549.958 297.774 505.238 322.762C460.519 347.751 403.808 331.675 378.825 286.946C353.883 242.218 369.914 185.495 414.633 160.507Z" fill="black"/>
<path d="M396.979 728.902L396.521 768.633L426.667 763.469L428.166 724.737L396.979 728.902Z" fill="#FE9F73"/>
<path d="M396.812 779.336L462.767 770.34C464.766 770.049 466.098 768.05 465.39 766.051C464.891 764.551 463.309 763.677 461.768 763.927L457.229 764.551L434.495 754.889L424.71 769.008L396.354 772.881C395.646 772.964 395.147 773.63 395.23 774.338L395.813 778.628C395.896 779.045 396.354 779.419 396.812 779.336Z" fill="#FF424D"/>
<path d="M452.649 759.346L427.125 751.932C418.714 762.719 406.639 756.389 406.639 756.389C398.936 754.098 395.022 761.178 395.022 761.178L396.604 772.839L461.851 763.968C459.561 760.637 452.649 759.346 452.649 759.346Z" fill="#33192C"/>
<path d="M395.29 761.186L394.795 761.253L396.373 772.849L396.868 772.782L395.29 761.186Z" fill="black"/>
<path d="M418.298 757.555C418.256 757.555 412.676 759.137 406.764 756.139L406.556 756.555C410.803 758.679 414.883 758.554 416.965 758.263C417.881 758.138 418.423 757.971 418.464 757.971L418.298 757.555Z" fill="black"/>
<path d="M399.018 767.784L398.797 768.232L402.16 769.887L402.381 769.438L399.018 767.784Z" fill="black"/>
<path d="M401.189 766.868L400.968 767.316L404.329 768.974L404.55 768.526L401.189 766.868Z" fill="black"/>
<path d="M464.599 769.174L464.974 769.507C465.682 768.758 465.973 767.717 465.848 766.675C465.599 764.76 463.808 763.427 461.893 763.677L396.646 772.548C395.605 772.673 394.897 773.63 395.022 774.672L395.48 777.878L395.98 777.795L395.522 774.588C395.438 773.839 395.938 773.131 396.729 773.006L461.976 764.135C463.642 763.927 465.141 765.051 465.39 766.717C465.474 767.592 465.182 768.508 464.599 769.174Z" fill="black"/>
<path d="M461.726 764.052L462.143 763.802C462.059 763.677 460.394 761.178 455.147 759.72C450.026 758.304 427.416 751.766 427.208 751.683L427.083 752.141C427.291 752.224 449.901 758.763 455.023 760.179C460.019 761.553 461.685 764.01 461.726 764.052Z" fill="black"/>
<path d="M202.07 655.687L169.01 666.098L178.753 697.25L215.686 685.589L202.07 655.687Z" fill="#FE9F73"/>
<path d="M172.965 694.002L164.804 666.557C164.596 665.89 163.888 665.474 163.18 665.682L159.016 666.931C158.558 667.056 158.267 667.556 158.433 668.014L177.42 731.817C178.003 733.733 180.21 734.732 182.084 733.774C183.5 733.066 184.083 731.359 183.625 729.86L182.334 725.487L188.413 701.54L172.965 694.002Z" fill="#FF424D"/>
<path d="M176.13 663.433L164.846 666.806L183.625 729.901C186.539 727.153 186.789 720.114 186.789 720.114L190.203 693.752C178.253 687.088 182.667 674.178 182.667 674.178C183.708 666.223 176.13 663.433 176.13 663.433Z" fill="#33192C"/>
<path d="M176.041 663.213L164.828 666.552L164.97 667.031L176.184 663.692L176.041 663.213Z" fill="black"/>
<path d="M182.417 674.136C180.96 678.634 181.709 682.674 182.334 684.715C182.584 685.589 182.833 686.131 182.833 686.131L183.291 685.922C183.25 685.881 180.876 680.592 182.917 674.303L182.417 674.136Z" fill="black"/>
<path d="M169.784 668.296L168.662 671.872L169.139 672.022L170.261 668.445L169.784 668.296Z" fill="black"/>
<path d="M170.981 670.243L169.859 673.82L170.336 673.97L171.458 670.393L170.981 670.243Z" fill="black"/>
<path d="M181.418 733.816C180.585 734.066 179.669 733.941 178.919 733.441L178.67 733.858C179.544 734.441 180.585 734.566 181.584 734.274C183.416 733.733 184.499 731.775 183.958 729.901L165.179 666.806C164.887 665.807 163.846 665.266 162.847 665.557L159.724 666.473L159.849 666.931L162.972 666.015C163.722 665.807 164.471 666.223 164.721 666.931L183.5 730.026C183.916 731.651 183 733.316 181.418 733.816Z" fill="black"/>
<path d="M186.789 722.655C187.372 717.366 190.412 694.043 190.412 693.794L189.912 693.71C189.87 693.96 186.872 717.282 186.289 722.572C185.706 727.736 183.541 729.776 183.5 729.776L183.833 730.151C183.916 730.068 186.164 728.027 186.789 722.655Z" fill="black"/>
<path d="M391.316 741.646C407.139 744.353 432.704 742.062 432.704 742.062C432.704 742.062 445.071 657.103 448.902 634.155C452.732 611.208 381.406 507.799 381.406 507.799L345.347 497.929C345.347 497.929 310.663 458.947 298.421 483.394C277.102 526.04 262.612 622.453 262.612 622.453L187.372 654.396C184.915 670.846 200.78 698.458 200.78 698.458C200.78 698.458 265.86 674.844 305.291 653.355C319.157 645.817 342.849 549.279 342.849 549.279C345.889 552.778 392.274 623.369 392.399 633.697C392.607 644.067 391.316 741.646 391.316 741.646Z" fill="#3D1A36"/>
<path d="M320.614 625.118C320.864 625.118 321.114 624.951 321.197 624.66L343.474 549.487L350.302 536.077C350.469 535.786 350.344 535.411 350.052 535.286C349.761 535.119 349.386 535.244 349.261 535.536L342.349 549.071V549.113L320.073 624.327C319.99 624.66 320.156 624.951 320.489 625.076L320.614 625.118Z" fill="black"/>
<path d="M391.358 631.24C391.608 631.532 393.148 632.906 400.06 632.989C400.393 632.989 400.643 632.739 400.643 632.406C400.643 632.073 400.393 631.823 400.06 631.823C394.189 631.781 392.524 630.699 392.274 630.49L376.993 601.421C376.826 601.129 376.493 601.005 376.201 601.171C375.91 601.338 375.785 601.671 375.952 601.962L391.316 631.198L391.358 631.24Z" fill="black"/>
<path d="M395.938 636.279C396.146 636.279 396.396 636.154 396.479 635.905C396.604 635.613 396.479 635.238 396.188 635.113C392.898 633.697 392.44 630.782 392.44 630.74C392.399 630.407 392.107 630.199 391.774 630.241C391.441 630.282 391.233 630.574 391.274 630.907C391.274 631.032 391.816 634.489 395.73 636.196L395.938 636.279Z" fill="black"/>
<path d="M392.315 631.698C391.982 631.698 391.732 631.948 391.732 632.281L390.733 742.145L391.274 742.229C391.441 742.229 405.057 743.895 415.3 743.811C416.84 743.811 418.339 743.77 419.672 743.645C420.005 743.603 420.255 743.353 420.213 743.02C420.171 742.687 419.922 742.437 419.588 742.479C410.511 743.187 395.022 741.479 391.982 741.104L392.982 632.281C392.898 631.99 392.649 631.74 392.315 631.698Z" fill="black"/>
<path d="M413.051 737.689C424.71 737.606 434.412 736.148 434.578 736.107C434.911 736.065 435.119 735.774 435.078 735.44C435.036 735.107 434.703 734.899 434.412 734.941C434.162 734.982 409.387 738.689 391.566 734.482C391.233 734.399 390.941 734.607 390.858 734.941C390.775 735.274 390.983 735.565 391.316 735.649C398.103 737.273 405.931 737.731 413.051 737.689Z" fill="black"/>
<path d="M272.147 569.686C271.814 569.645 271.523 569.853 271.481 570.186L262.487 622.744L262.612 622.911C262.696 623.036 264.861 626.492 269.483 628.908C269.566 628.95 269.691 628.991 269.774 628.991C269.982 628.991 270.149 628.866 270.274 628.658C270.44 628.366 270.315 627.992 270.024 627.867C266.276 625.909 264.195 623.202 263.737 622.494L272.689 570.394C272.689 570.019 272.481 569.728 272.147 569.686Z" fill="black"/>
<path d="M402.975 307.27L397.728 331.467C397.728 331.467 396.271 339.713 388.901 339.171L387.86 350.374C387.485 354.539 384.196 357.912 380.032 358.287C377.992 358.495 375.618 358.412 373.037 357.871C364.876 356.08 361.753 349 361.753 345.793C361.753 342.586 366.958 328.385 366.958 328.385L368.29 321.138L375.285 293.443L402.975 307.27Z" fill="#FE9F73"/>
<path d="M375.952 294.942L379.907 304.271C379.907 304.271 395.73 314.725 406.306 308.728C416.882 302.689 415.008 298.274 413.259 293.735C412.427 291.486 407.18 286.155 398.936 287.863C394.439 288.779 392.607 282.698 387.236 284.406C381.864 286.113 375.202 289.612 375.452 291.611C375.702 293.568 375.952 294.942 375.952 294.942Z" fill="#1D1D1B"/>
<path d="M377.034 291.611C377.034 291.611 369.248 289.528 365.417 296.608C361.586 303.688 363.668 308.311 363.252 310.602C362.836 312.892 358.005 327.76 368.915 328.968L377.284 304.438L375.743 293.61L377.034 291.611Z" fill="#1D1D1B"/>
<path d="M373.786 328.593C373.786 328.593 371.288 342.378 388.11 347.417L388.859 339.171C388.859 339.171 377.326 338.963 373.786 328.593Z" fill="#F07162"/>
<path d="M389.276 325.594C389.193 325.594 389.151 325.511 389.151 325.428C389.151 325.345 389.193 325.261 389.317 325.22L392.982 324.845L393.648 316.557C393.648 316.474 393.731 316.391 393.856 316.391C393.939 316.391 394.023 316.474 394.023 316.599L393.315 325.178L389.359 325.594C389.317 325.636 389.276 325.594 389.276 325.594Z" fill="#F07162"/>
<path d="M357.048 343.544C357.048 343.544 402.85 345.668 406.889 349.708C410.928 353.748 414.675 376.903 408.013 383.817C401.351 390.73 357.048 343.544 357.048 343.544Z" fill="#7FC6A6"/>
<path d="M289.052 506.383C289.052 506.383 302.793 446.287 321.572 389.189L366.583 373.53L412.135 384.858C412.135 384.858 389.65 440.831 389.65 449.785C389.65 458.739 389.359 517.003 389.359 517.003C389.359 517.003 371.579 516.045 347.804 521.917C339.31 524 303.792 531.496 289.052 506.383Z" fill="#593750"/>
<path d="M448.527 375.112C442.947 381.068 435.661 388.523 432.33 390.605C426.459 394.228 422.337 396.727 422.337 396.727C422.337 396.727 416.59 398.018 411.677 397.06C406.764 396.061 404.057 396.644 404.057 396.644L342.225 398.018L318.741 398.934L325.819 369.698C325.819 369.698 342.058 341.004 359.504 343.711L373.12 348L401.392 358.162L448.527 375.112Z" fill="#593750"/>
<path d="M406.056 399.226L406.805 399.351C399.977 416.926 389.859 444.121 389.859 450.118C389.859 458.947 389.567 516.753 389.567 517.336V517.711H389.192C389.026 517.711 371.163 516.836 347.762 522.625C343.349 523.708 335.313 525.332 326.402 525.332C324.487 525.332 322.53 525.249 320.573 525.083C305.666 523.791 294.882 517.711 288.594 506.924L288.511 506.8L288.553 506.675C288.678 506.092 302.335 446.745 320.698 390.605L321.405 390.813C303.501 445.579 290.093 503.385 289.344 506.675C303.501 530.622 337.519 524.374 347.638 521.876C369.248 516.545 386.194 516.878 388.901 516.961C388.943 511.922 389.192 458.573 389.192 450.118C389.109 444.08 399.227 416.884 406.056 399.226Z" fill="#1D1D1B"/>
<path d="M407.513 396.727C392.815 393.854 343.182 374.071 342.683 373.863L342.932 373.197C343.432 373.405 393.023 393.146 407.638 396.019L407.513 396.727Z" fill="#1D1D1B"/>
<path d="M501.158 383.983L455.647 367.325C454.773 368.282 451.983 371.406 448.485 375.112L491.373 390.563L341.433 425.172C339.768 425.755 337.894 425.797 336.187 425.214L222.348 386.315L320.656 331.383C321.988 330.634 331.773 333.049 332.606 333.424L373.12 348L401.392 358.162L412.76 362.16L423.502 355.539L331.565 321.888C326.527 319.722 320.656 320.055 315.868 322.721L216.019 378.528C212.855 380.318 211.064 383.65 211.397 387.273C211.73 390.897 214.062 393.895 217.518 395.061L333.022 434.542C336.812 435.833 340.975 435.792 344.764 434.459L500.783 397.727C503.656 396.686 505.613 394.062 505.696 390.98C505.738 387.94 503.989 385.191 501.158 383.983Z" fill="#3F9896"/>
<path d="M483.337 331.675L455.939 367.033C455.939 367.033 455.855 367.116 455.647 367.325C454.773 368.282 451.983 371.406 448.485 375.112L401.392 358.162L412.76 362.16L423.502 355.538L431.205 350.791L464.849 326.802C464.807 326.844 475.675 323.012 483.337 331.675Z" fill="#593750"/>
<path d="M333.814 363.451C330.649 368.741 327.984 374.238 325.944 378.736L318.449 324.886L328.234 323.512L333.814 363.451Z" fill="#3F9896"/>
<path d="M343.016 429.878L333.231 431.252L326.027 379.402C329.566 378.819 332.898 377.778 335.646 376.737L343.016 429.878Z" fill="#3F9896"/>
<path d="M344.14 434.084L374.827 426.796L375.077 427.921L344.473 435.167C338.186 437.333 332.981 435.167 332.814 435.084L222.556 397.394L222.931 396.311L333.231 434.001C333.272 434.043 338.269 436.083 344.14 434.084Z" fill="black"/>
<path d="M391.816 414.135L341.85 425.672L336.27 385.441L337.436 385.274L342.849 424.256L391.566 413.011L391.816 414.135Z" fill="black"/>
<path d="M449.526 408.555L500.491 396.561L508.528 424.131L507.403 424.381L499.617 397.935L449.776 409.679L449.526 408.555Z" fill="black"/>
<path d="M338.436 275.66C340.143 275.952 341.309 277.534 341.017 279.242C340.726 280.949 339.143 282.115 337.436 281.824L307.457 277.034C305.75 276.743 304.584 275.16 304.875 273.453C305.167 271.745 306.749 270.579 308.456 270.871L338.436 275.66Z" fill="#FEC786"/>
<path d="M287.928 337.755C262.779 292.777 205.776 276.618 160.807 301.772C115.838 326.885 99.6819 383.942 124.831 428.92C149.939 473.899 206.984 490.058 251.953 464.903C273.438 452.909 288.345 433.626 295.298 411.845C295.423 411.47 295.548 411.095 295.631 410.72C302.876 387.19 300.878 360.869 287.928 337.755ZM286.804 408.971C280.517 428.712 267.026 446.204 247.581 457.073C206.942 479.812 155.394 465.194 132.659 424.547C109.925 383.9 124.54 332.341 165.179 309.602C205.818 286.905 257.366 301.481 280.1 342.128C291.717 362.952 293.591 386.649 287.137 407.847C287.054 408.222 286.929 408.596 286.804 408.971Z" fill="#4B677A"/>
<path d="M275.27 344.294C254.243 306.645 206.526 293.152 168.885 314.183C131.244 335.215 117.753 382.942 138.78 420.591C159.808 458.239 207.525 471.733 245.166 450.701C262.904 440.789 275.27 424.964 281.183 407.056C281.308 406.681 281.433 406.306 281.558 405.931C287.803 386.107 286.18 363.826 275.27 344.294ZM274.105 404.598C268.733 420.799 257.533 435.167 241.502 444.121C207.483 463.154 164.346 450.91 145.317 416.884C126.33 382.859 138.53 339.713 172.549 320.68C206.567 301.648 249.705 313.892 268.733 347.917C278.56 365.534 280.059 385.607 274.438 403.474C274.313 403.849 274.229 404.224 274.105 404.598Z" fill="white"/>
<path d="M165.47 310.019C125.081 332.591 110.55 383.817 133.117 424.256C155.685 464.653 206.9 479.188 247.331 456.615L247.831 457.531C206.942 480.396 155.061 465.694 132.201 424.797C109.342 383.9 124.04 332.008 164.929 309.144L165.47 310.019Z" fill="black"/>
<path d="M160.557 301.273C115.338 326.552 99.099 383.9 124.373 429.128C149.648 474.357 206.984 490.599 252.203 465.319C297.422 440.04 313.661 382.692 288.386 337.464C263.154 292.235 205.776 275.993 160.557 301.273ZM161.057 302.189C205.776 277.201 262.487 293.277 287.47 338.005C312.453 382.734 296.381 439.457 251.661 464.445C206.942 489.433 150.231 473.357 125.248 428.629C100.306 383.9 116.337 327.177 161.057 302.189Z" fill="black"/>
<path d="M449.068 222.186C439.117 227.766 435.536 240.385 441.115 250.339C446.695 260.292 459.311 263.874 469.263 258.293C479.214 252.713 482.795 240.094 477.216 230.14C471.678 220.186 459.061 216.605 449.068 222.186ZM451.15 225.892C459.061 221.478 469.096 224.31 473.552 232.222C477.965 240.135 475.134 250.172 467.223 254.628C459.311 259.043 449.276 256.211 444.821 248.298C440.408 240.344 443.239 230.307 451.15 225.892Z" fill="#FEC786"/>
<path d="M456.105 235.054C456.688 234.763 457.313 234.555 457.896 234.471C459.936 234.221 462.018 235.221 463.059 237.178L522.185 435.792C523.517 438.291 522.56 441.414 520.061 442.747C517.563 444.08 514.44 443.122 513.108 440.623L453.982 242.009C452.649 239.511 453.607 236.387 456.105 235.054Z" fill="#3F9896"/>
<path d="M463.649 237.028L462.491 237.371L519.958 431.355L521.116 431.012L463.649 237.028Z" fill="black"/>
<path d="M454.83 242.721L453.673 243.066L475.479 316.308L476.636 315.964L454.83 242.721Z" fill="black"/>
<path d="M489.624 313.767C488.708 314.808 486.085 322.846 485.335 325.886H485.294C483.461 333.882 474.759 338.255 467.264 334.965L463.392 333.257C463.392 333.257 467.847 315.224 468.722 312.642C469.596 310.06 475.384 302.439 478.548 300.606C484.211 297.275 483.461 300.315 483.461 300.315C489.666 297.4 487.833 302.147 487.833 302.147C493.163 299.024 492.289 303.855 492.289 303.855C495.37 302.48 496.244 303.355 496.494 304.313C496.661 305.021 496.453 305.729 495.995 306.27C494.87 307.645 492.164 310.893 489.624 313.767Z" fill="#FE9F73"/>
<path d="M487.042 308.186C487.001 308.311 487.001 308.478 487.126 308.561C487.251 308.686 487.459 308.644 487.584 308.519C489.249 306.604 492.414 304.23 492.414 304.188C492.539 304.063 492.58 303.855 492.497 303.73C492.372 303.605 492.164 303.563 492.039 303.647C491.914 303.73 488.791 306.104 487.084 308.061C487.084 308.103 487.084 308.144 487.042 308.186Z" fill="#F07162"/>
<path d="M483.253 306.562C483.212 306.687 483.253 306.853 483.378 306.978C483.545 307.062 483.711 307.02 483.836 306.895C485.543 304.355 487.958 302.48 488 302.48C488.125 302.356 488.167 302.189 488.083 302.022C487.958 301.897 487.792 301.856 487.625 301.939C487.542 302.022 485.085 303.855 483.295 306.52C483.295 306.52 483.253 306.52 483.253 306.562Z" fill="#F07162"/>
<path d="M479.214 304.063C479.173 304.188 479.214 304.355 479.339 304.438C479.506 304.521 479.672 304.521 479.797 304.355C481.338 302.189 483.628 300.606 483.628 300.606C483.795 300.523 483.795 300.315 483.711 300.148C483.628 299.982 483.42 299.982 483.253 300.065C483.17 300.148 480.838 301.731 479.256 303.98C479.214 304.021 479.214 304.021 479.214 304.063Z" fill="#F07162"/>
<path d="M214.537 397.309C222.72 393.637 226.377 384.026 222.706 375.841C219.036 367.657 209.426 363.998 201.244 367.67C193.061 371.341 189.403 380.953 193.074 389.137C196.745 397.322 206.354 400.98 214.537 397.309Z" fill="#FEC786"/>
<path d="M217.685 376.987C220.724 382.401 218.767 389.272 213.354 392.271C207.941 395.311 201.071 393.354 198.073 387.94C195.033 382.526 196.99 375.654 202.403 372.655C207.816 369.657 214.645 371.572 217.685 376.987Z" fill="white"/>
<path d="M314.46 320.846C319.128 319.609 321.91 314.822 320.674 310.152C319.438 305.483 314.651 302.7 309.983 303.937C305.314 305.173 302.532 309.961 303.768 314.63C305.005 319.3 309.791 322.082 314.46 320.846Z" fill="#4A263E"/>
<path d="M198.281 367.241C189.954 374.28 187.705 383.234 192.16 391.23C196.99 399.892 207.983 403.016 216.644 398.143L325.778 337.172C339.393 329.551 344.307 312.267 336.687 298.649C329.067 285.03 311.787 280.116 298.171 287.738C295.507 289.278 208.233 359.287 198.281 367.241ZM199.864 369.115C205.818 364.326 296.464 291.652 299.379 289.903C311.829 282.948 327.61 287.404 334.563 299.857C341.517 312.309 337.061 328.093 324.612 335.09L215.478 396.061C207.983 400.267 198.489 397.56 194.284 390.064C190.37 383.067 192.41 375.446 199.864 369.115Z" fill="#4A263E"/>
<path d="M298.546 287.904C285.055 295.442 280.184 312.559 287.72 326.094C295.257 339.588 312.37 344.46 325.902 336.922C339.393 329.384 344.265 312.267 336.728 298.732C329.15 285.197 312.037 280.324 298.546 287.904ZM300.003 290.528C312.037 283.781 327.318 288.112 334.064 300.19C340.809 312.226 336.479 327.51 324.403 334.257C312.37 341.004 297.089 336.673 290.343 324.637C283.64 312.517 287.97 297.275 300.003 290.528Z" fill="#4A263E"/>
<path d="M286.166 307.239L285.748 310.25L338.662 317.603L339.081 314.591L286.166 307.239Z" fill="#4A263E"/>
<path d="M300.447 288.514L297.81 290.027L324.398 336.375L327.035 334.862L300.447 288.514Z" fill="#4A263E"/>
<path d="M334.484 297.365L288.674 324.851L290.238 327.458L336.047 299.972L334.484 297.365Z" fill="#4A263E"/>
<path d="M324.32 274.785C325.278 275.077 325.819 276.076 325.528 277.076L303.543 348.958L298.629 352.915L322.03 275.993C322.363 275.035 323.363 274.494 324.32 274.785Z" fill="#4A263E"/>
<path d="M315.493 347.917C317.242 347.917 318.616 349.291 318.657 351.041C318.657 352.79 317.283 354.164 315.534 354.206L285.18 354.372C283.431 354.372 282.057 352.998 282.016 351.249C282.016 349.5 283.39 348.125 285.138 348.084L315.493 347.917Z" fill="#FEC786"/>
<path d="M514.663 442.702C517.521 440.42 517.989 436.254 515.708 433.395C513.427 430.537 509.261 430.069 506.403 432.35C503.545 434.632 503.078 438.798 505.359 441.657C507.639 444.515 511.805 444.983 514.663 442.702Z" fill="#203749"/>
<path d="M340.77 417.489L332.816 418.639L339.4 464.185L347.354 463.035L340.77 417.489Z" fill="#3F9896"/>
<path d="M330.899 474.315L366.874 456.115C368.082 455.491 368.623 454.075 368.123 452.825C367.374 450.993 365.625 448.786 361.545 448.619C354.591 448.369 355.257 455.199 341.975 452.867C328.692 450.535 319.906 455.616 317.491 461.155C315.076 466.735 316.867 479.979 330.899 474.315Z" fill="#FEC786"/>
<path d="M407.805 396.769C407.472 397.602 407.138 398.476 406.805 399.393L406.056 399.268L407.055 396.644L407.805 396.769Z" fill="#1D1D1B"/>
<path d="M335.646 376.737C332.898 377.778 329.567 378.819 326.027 379.402L325.944 378.736C327.984 374.238 330.649 368.741 333.814 363.451L335.646 376.737Z" fill="#3F9896"/>
<path d="M325.944 378.736L326.027 379.402C325.861 379.444 325.736 379.444 325.611 379.485C325.736 379.236 325.819 378.986 325.944 378.736Z" fill="#FE9F73"/>
<path d="M274.438 403.516C274.313 403.89 274.188 404.265 274.104 404.64L270.44 403.391L270.815 402.308L274.438 403.516Z" fill="black"/>
<path d="M281.558 405.931L287.179 407.847C287.054 408.222 286.971 408.596 286.846 408.971L281.225 407.056C281.308 406.681 281.433 406.306 281.558 405.931Z" fill="black"/>
<path d="M332.939 424.714L295.298 411.845C295.423 411.47 295.548 411.095 295.631 410.72L331.482 422.965L324.195 370.24L325.361 370.073L332.939 424.714Z" fill="black"/>
<path d="M462.85 328.385L465.682 326.427L476.008 327.177L480.838 329.01L483.087 331.508L477.091 339.671L463.6 337.131L462.85 328.385Z" fill="#593750"/>
<path d="M483.462 331.467L483.337 331.675C481.463 334.424 437.784 398.018 417.382 398.018C417.215 398.018 417.007 398.018 416.84 398.018C414.175 397.852 411.136 397.477 407.805 396.81L407.055 396.685C407.097 396.561 407.139 396.394 407.222 396.269L407.347 395.977L407.638 396.019C411.053 396.686 414.176 397.102 416.882 397.269C417.049 397.269 417.215 397.269 417.382 397.269C436.868 397.269 479.839 335.423 482.587 331.467C479.006 325.886 466.431 326.886 465.182 327.01C454.065 335.631 438.784 346.043 432.704 350.124C427.5 353.623 422.628 356.788 418.964 359.078C413.093 362.785 412.885 362.618 412.635 362.452H412.593C407.763 361.452 383.072 351.832 377.992 349.958C369.748 346.918 362.169 344.002 355.424 344.335L355.382 343.586C362.336 343.253 370.081 346.21 378.45 349.333C383.488 351.207 408.096 360.786 412.885 361.744H412.926C415.508 360.828 447.028 340.171 464.808 326.344L464.891 326.302H464.974C465.557 326.261 479.506 324.803 483.337 331.3L483.462 331.467Z" fill="#1D1D1B"/>
<path d="M393.898 328.052C391.941 327.344 387.485 327.635 387.444 327.635L387.402 327.219C387.569 327.219 391.982 326.927 394.023 327.677L393.898 328.052Z" fill="#F07162"/>
<path d="M375.743 308.936C375.743 308.936 387.902 312.684 390.733 314.183C393.564 315.683 396.854 314.558 398.311 314.516C399.769 314.475 401.351 314.808 401.351 314.808L399.061 325.303C399.061 325.303 396.438 325.22 395.063 324.345C393.689 323.47 391.941 322.679 390.275 323.096C388.61 323.512 379.741 323.096 376.41 317.89C373.078 312.684 375.535 309.394 371.496 309.019C371.496 309.019 374.036 308.686 375.743 308.936Z" fill="#49263E"/>
<path d="M375.743 308.936C375.202 308.644 374.661 308.436 374.036 308.269C370.663 307.52 367.291 309.685 366.583 313.059C365.833 316.432 367.999 319.806 371.371 320.514C371.496 320.555 371.663 320.555 371.788 320.597L375.743 308.936Z" fill="#FE9F73"/>
<path d="M371.122 317.682C369.831 317.39 369.206 316.266 369.123 315.224C369.04 314.017 369.664 313.017 370.705 312.642C372.246 312.101 373.37 312.892 373.911 313.475C373.786 312.726 373.495 312.143 372.995 311.684C371.913 310.768 370.33 310.935 370.33 310.935C370.247 310.935 370.164 310.893 370.122 310.768C370.122 310.685 370.164 310.602 370.289 310.56C370.372 310.56 372.038 310.393 373.245 311.393C373.911 311.976 374.286 312.851 374.328 313.975V314.6L373.995 314.058C373.953 313.975 372.787 312.267 370.83 312.934C369.747 313.309 369.414 314.391 369.498 315.183C369.539 316.016 370.039 317.057 371.205 317.307H371.246C371.33 317.307 371.413 317.432 371.371 317.515C371.33 317.64 371.246 317.723 371.122 317.682Z" fill="#F07162"/>
<path d="M385.195 314.808C383.738 314.516 381.531 314.308 380.865 315.433C380.115 316.64 381.198 319.264 384.987 319.889C388.36 320.68 390.317 318.889 390.192 317.557C389.942 315.683 385.903 314.933 385.195 314.808Z" fill="#FE9F73"/>
<path d="M387.152 317.931C387.027 318.515 386.486 318.848 385.903 318.723C385.32 318.598 384.987 318.056 385.112 317.473C385.237 316.89 385.778 316.557 386.361 316.682C386.944 316.807 387.277 317.348 387.152 317.931Z" fill="black"/>
<path d="M400.685 317.723C400.685 317.723 395.979 316.266 394.897 318.015C394.106 319.264 395.355 322.138 399.602 322.554L400.685 317.723Z" fill="#FE9F73"/>
<path d="M398.27 319.264C398.145 319.847 397.603 320.18 397.02 320.055C396.438 319.93 396.104 319.389 396.229 318.806C396.354 318.223 396.896 317.89 397.478 318.015C398.02 318.14 398.395 318.723 398.27 319.264Z" fill="black"/>
<path d="M287.72 133.061C256.158 130.313 255.784 166.087 255.784 166.087C255.784 166.087 241.418 152.469 231.092 169.752C231.092 169.752 213.729 159.715 204.61 177.665H325.611C325.361 177.207 325.07 176.707 324.653 176.291C322.613 174.125 319.115 172.334 313.244 171.918C313.244 171.918 315.243 135.477 287.72 133.061Z" fill="white"/>
<path d="M553.622 381.734C553.289 382.109 553.039 382.484 552.831 382.9H654.636C646.933 367.824 632.36 376.237 632.36 376.237C623.657 361.702 611.582 373.155 611.582 373.155C611.582 373.155 611.249 343.044 584.726 345.377C561.575 347.417 563.282 378.069 563.282 378.069C558.285 378.403 555.329 379.86 553.622 381.734Z" fill="white"/>
<path d="M166.928 87.958C165.803 88.7076 165.47 89.957 165.72 91.0399H223.014C225.846 88.7909 227.719 85.2926 227.636 81.3778C227.594 78.4209 226.554 75.0058 223.805 71.1327C213.354 56.1815 195.075 70.3831 195.2 77.9211C195.2 77.9211 191.536 66.5099 180.335 68.4673C169.134 70.4247 173.048 87.0418 173.048 87.0418C173.048 87.0418 169.468 86.2921 166.928 87.958Z" fill="white"/>
<path d="M628.279 306.104C627.321 306.77 627.03 307.811 627.238 308.769H676.746C679.203 306.812 680.785 303.813 680.743 300.398C680.702 297.858 679.786 294.901 677.454 291.569C668.418 278.659 652.596 290.903 652.762 297.441C652.762 297.441 649.598 287.571 639.938 289.278C630.236 290.986 633.609 305.312 633.609 305.312C633.609 305.312 630.444 304.646 628.279 306.104Z" fill="white"/>
</g>
<defs>
<clipPath id="clip0_347_2">
<rect width="732" height="785" fill="white"/>
</clipPath>
</defs>
</svg>
