<svg width="152" height="31" viewBox="0 0 152 31" fill="none" xmlns="http://www.w3.org/2000/svg">
<path d="M11.376 11.968C11.216 11.792 10.984 11.608 10.68 11.416C10.376 11.208 10.016 11.016 9.6 10.84C9.2 10.664 8.752 10.52 8.256 10.408C7.776 10.296 7.28 10.24 6.768 10.24C5.632 10.24 4.792 10.448 4.248 10.864C3.72 11.28 3.456 11.856 3.456 12.592C3.456 13.008 3.536 13.352 3.696 13.624C3.872 13.88 4.136 14.112 4.488 14.32C4.84 14.512 5.28 14.688 5.808 14.848C6.336 14.992 6.952 15.152 7.656 15.328C8.52 15.536 9.296 15.768 9.984 16.024C10.688 16.28 11.28 16.592 11.76 16.96C12.24 17.328 12.608 17.784 12.864 18.328C13.136 18.856 13.272 19.504 13.272 20.272C13.272 21.136 13.104 21.88 12.768 22.504C12.448 23.128 12 23.64 11.424 24.04C10.864 24.424 10.208 24.712 9.456 24.904C8.704 25.08 7.896 25.168 7.032 25.168C5.736 25.168 4.48 24.976 3.264 24.592C2.064 24.192 0.976 23.616 0 22.864L1.224 20.56C1.432 20.768 1.728 21 2.112 21.256C2.512 21.512 2.968 21.752 3.48 21.976C4.008 22.184 4.576 22.368 5.184 22.528C5.792 22.672 6.424 22.744 7.08 22.744C8.136 22.744 8.952 22.56 9.528 22.192C10.104 21.824 10.392 21.28 10.392 20.56C10.392 20.128 10.28 19.768 10.056 19.48C9.848 19.192 9.544 18.944 9.144 18.736C8.744 18.512 8.256 18.312 7.68 18.136C7.104 17.96 6.448 17.776 5.712 17.584C4.864 17.36 4.12 17.128 3.48 16.888C2.856 16.632 2.336 16.328 1.92 15.976C1.504 15.624 1.184 15.216 0.96 14.752C0.752 14.272 0.648 13.696 0.648 13.024C0.648 12.192 0.808 11.456 1.128 10.816C1.448 10.16 1.88 9.616 2.424 9.184C2.984 8.736 3.64 8.4 4.392 8.176C5.144 7.952 5.96 7.84 6.84 7.84C7.992 7.84 9.056 8.024 10.032 8.392C11.008 8.76 11.864 9.216 12.6 9.76L11.376 11.968Z" fill="black"/>
<path d="M28.3547 10.336H22.6907V25H19.9787V10.336H14.2907V7.96H28.3547V10.336Z" fill="black"/>
<path d="M64.5909 25V7.96H71.7428C72.5108 7.96 73.2149 8.12 73.8549 8.44C74.5109 8.76 75.0709 9.184 75.5349 9.712C75.9989 10.224 76.3589 10.816 76.6149 11.488C76.8869 12.144 77.0229 12.816 77.0229 13.504C77.0229 14.224 76.8949 14.92 76.6389 15.592C76.3989 16.248 76.0548 16.84 75.6068 17.368C75.1588 17.88 74.6149 18.296 73.9749 18.616C73.3509 18.92 72.6548 19.072 71.8868 19.072H67.2789V25H64.5909ZM67.2789 16.696H71.7188C72.1028 16.696 72.4469 16.616 72.7509 16.456C73.0709 16.296 73.3428 16.072 73.5668 15.784C73.7908 15.496 73.9668 15.16 74.0948 14.776C74.2228 14.392 74.2868 13.968 74.2868 13.504C74.2868 13.024 74.2148 12.592 74.0708 12.208C73.9268 11.824 73.7268 11.496 73.4708 11.224C73.2148 10.936 72.9188 10.72 72.5828 10.576C72.2628 10.416 71.9268 10.336 71.5748 10.336H67.2789V16.696Z" fill="black"/>
<path d="M89.624 11.968C89.464 11.792 89.232 11.608 88.928 11.416C88.624 11.208 88.264 11.016 87.848 10.84C87.448 10.664 87 10.52 86.504 10.408C86.024 10.296 85.528 10.24 85.016 10.24C83.88 10.24 83.04 10.448 82.496 10.864C81.968 11.28 81.704 11.856 81.704 12.592C81.704 13.008 81.784 13.352 81.944 13.624C82.12 13.88 82.384 14.112 82.736 14.32C83.088 14.512 83.528 14.688 84.056 14.848C84.584 14.992 85.2 15.152 85.904 15.328C86.768 15.536 87.544 15.768 88.232 16.024C88.936 16.28 89.528 16.592 90.008 16.96C90.488 17.328 90.856 17.784 91.112 18.328C91.384 18.856 91.52 19.504 91.52 20.272C91.52 21.136 91.352 21.88 91.016 22.504C90.696 23.128 90.248 23.64 89.672 24.04C89.112 24.424 88.456 24.712 87.704 24.904C86.952 25.08 86.144 25.168 85.28 25.168C83.984 25.168 82.728 24.976 81.512 24.592C80.312 24.192 79.224 23.616 78.248 22.864L79.472 20.56C79.68 20.768 79.976 21 80.36 21.256C80.76 21.512 81.216 21.752 81.728 21.976C82.256 22.184 82.824 22.368 83.432 22.528C84.04 22.672 84.672 22.744 85.328 22.744C86.384 22.744 87.2 22.56 87.776 22.192C88.352 21.824 88.64 21.28 88.64 20.56C88.64 20.128 88.528 19.768 88.304 19.48C88.096 19.192 87.792 18.944 87.392 18.736C86.992 18.512 86.504 18.312 85.928 18.136C85.352 17.96 84.696 17.776 83.96 17.584C83.112 17.36 82.368 17.128 81.728 16.888C81.104 16.632 80.584 16.328 80.168 15.976C79.752 15.624 79.432 15.216 79.208 14.752C79 14.272 78.896 13.696 78.896 13.024C78.896 12.192 79.056 11.456 79.376 10.816C79.696 10.16 80.128 9.616 80.672 9.184C81.232 8.736 81.888 8.4 82.64 8.176C83.392 7.952 84.208 7.84 85.088 7.84C86.24 7.84 87.304 8.024 88.28 8.392C89.256 8.76 90.112 9.216 90.848 9.76L89.624 11.968Z" fill="black"/>
<path d="M106.603 10.336H100.939V25H98.2267V10.336H92.5387V7.96H106.603V10.336Z" fill="black"/>
<path d="M120.576 22.624V25H108.888V7.96H120.36V10.336H111.576V15.184H119.184V17.416H111.576V22.624H120.576Z" fill="black"/>
<path d="M128.365 7.96H130.717L137.437 25H134.605L132.805 20.368H126.229L124.453 25H121.597L128.365 7.96ZM132.277 18.376L129.541 11.056L126.709 18.376H132.277Z" fill="black"/>
<path d="M139.544 25V7.96H142.232V22.624H151.376V25H139.544Z" fill="black"/>
<path fill-rule="evenodd" clip-rule="evenodd" d="M52.9387 23.2698C51.1886 24.8615 48.8987 25.87 46.376 25.9883V16.7071L52.9387 23.2698ZM53.6458 22.5627L47.0831 16H56.3643C56.246 18.5227 55.2375 20.8127 53.6458 22.5627ZM45.376 14.2929V5.01169C42.8532 5.12996 40.5633 6.13849 38.8133 7.73019L45.376 14.2929ZM38.4363 8.09047C38.4463 8.0804 38.4564 8.07035 38.4664 8.06031L38.4363 8.09047ZM38.1062 8.43729C36.5145 10.1873 35.5059 12.4773 35.3877 15H44.6689L38.1062 8.43729ZM56.3643 15C56.246 12.4773 55.2375 10.1873 53.6458 8.43729L47.0831 15H56.3643ZM46.376 5.01169C48.8987 5.12996 51.1886 6.13849 52.9387 7.73019L46.376 14.2929V5.01169ZM35.3877 16H44.6689L38.1062 22.5627C36.5145 20.8127 35.5059 18.5227 35.3877 16ZM45.376 25.9883C42.8532 25.87 40.5633 24.8615 38.8133 23.2698L45.376 16.7071V25.9883ZM45.876 31C54.4364 31 61.376 24.0604 61.376 15.5C61.376 6.93959 54.4364 0 45.876 0C37.3156 0 30.376 6.93959 30.376 15.5C30.376 24.0604 37.3156 31 45.876 31Z" fill="#3157FC"/>
</svg>
